<svg fill="white" height="16" viewBox="0 0 24 24" width="16" xmlns="http://www.w3.org/2000/svg"><g fill="white"><path d="m9 17.75c-.1 0-.19-.02-.29-.06-.28-.11-.46-.39-.46-.69v-6c0-.41.34-.75.75-.75s.75.34.75.75v4.19l.72-.72c.29-.29.77-.29 1.06 0s.29.77 0 1.06l-2 2c-.14.14-.34.22-.53.22z"/><path d="m8.99945 17.7499c-.19 0-.38-.07-.53-.22l-2-2c-.29-.29-.29-.77 0-1.06s.77-.29 1.06 0l2 2c.29.29.29.77 0 1.06-.15.15-.34.22-.53.22z"/><path d="m15 22.75h-6c-5.43 0-7.75-2.32-7.75-7.75v-6c0-5.43 2.32-7.75 7.75-7.75h5c.41 0 .75.34.75.75s-.34.75-.75.75h-5c-4.61 0-6.25 1.64-6.25 6.25v6c0 4.61 1.64 6.25 6.25 6.25h6c4.61 0 6.25-1.64 6.25-6.25v-5c0-.41.34-.75.75-.75s.75.34.75.75v5c0 5.43-2.32 7.75-7.75 7.75z"/><path d="m22 10.75h-4c-3.42 0-4.75-1.33001-4.75-4.75001v-4c0-.3.18-.58.46-.69.28-.12.6-.05.82.16l8 8c.21.21.28.54001.16.82001s-.39.46-.69.46zm-7.25-6.94001v2.19c0 2.58.67 3.25 3.25 3.25h2.19z"/></g></svg>